<svg width="14" height="14" viewBox="0 0 14 14" fill="none" xmlns="http://www.w3.org/2000/svg">
    <path d="M12.805 0.205025C13.0784 -0.0683418 13.5216 -0.0683418 13.795 0.205025C14.0683 0.478392 14.0683 0.921608 13.795 1.19497L7.98995 7L13.795 12.805C14.0683 13.0784 14.0683 13.5216 13.795 13.795C13.5216 14.0683 13.0784 14.0683 12.805 13.795L7 7.98995L1.19498 13.795C0.921608 14.0683 0.478393 14.0683 0.205025 13.795C-0.0683417 13.5216 -0.0683417 13.0784 0.205025 12.805L6.01005 7L0.205026 1.19497C-0.0683414 0.921608 -0.0683414 0.478392 0.205026 0.205025C0.478393 -0.0683418 0.921608 -0.0683418 1.19498 0.205025L7 6.01005L12.805 0.205025Z" fill="currentColor"/>
</svg>
